<svg width="138" height="35" viewBox="0 0 138 35" fill="none" xmlns="http://www.w3.org/2000/svg">
<path d="M124.664 2.37988V10.75H128.263V14.5901H124.664V25H120.043V2.37988H124.664Z" fill="black"/>
<path d="M110.704 25.39C106.174 25.39 102.934 22.09 102.934 17.47C102.934 12.79 106.084 9.51999 110.614 9.51999C115.324 9.51999 118.264 12.61 118.264 17.5V18.67L107.374 18.73C107.644 20.71 108.754 21.64 110.794 21.64C112.534 21.64 113.764 21.01 114.094 19.93H118.324C117.784 23.26 114.814 25.39 110.704 25.39ZM110.644 13.27C108.814 13.27 107.794 14.08 107.434 15.88H113.674C113.674 14.29 112.504 13.27 110.644 13.27Z" fill="black"/>
<path d="M88.9998 20.26H93.3799C93.4399 21.31 94.2199 21.94 95.6299 21.94C97.0699 21.94 97.7299 21.43 97.7299 20.65C97.7299 20.2 97.4899 19.72 96.3799 19.48L93.6199 18.88C90.8598 18.28 89.5098 17.08 89.5098 14.44C89.5098 11.32 92.1798 9.51999 95.7798 9.51999C99.2598 9.51999 101.69 11.56 101.69 14.59H97.3098C97.3098 13.57 96.6798 12.88 95.5698 12.88C94.5198 12.88 93.8598 13.42 93.8598 14.23C93.8598 14.92 94.4298 15.31 95.4798 15.55L98.2698 16.15C100.73 16.69 102.08 17.83 102.08 20.23C102.08 23.44 99.3499 25.39 95.4499 25.39C91.4899 25.39 88.9998 23.29 88.9998 20.26Z" fill="black"/>
<path d="M87.3639 25H82.7439V2.38H87.3639V25Z" fill="black"/>
<path d="M79.87 25H75.25V2.38H79.87V25Z" fill="black"/>
<path d="M79.87 25H75.25V6.18999H79.87V25Z" fill="black"/>
<path d="M68.072 25V10H72.692V25H68.072Z" fill="black"/>
<path d="M67.712 5.02C67.712 6.49 68.882 7.66 70.352 7.66C71.792 7.66 72.962 6.49 72.962 5.02C72.962 3.55 71.792 2.41 70.352 2.41C68.882 2.41 67.712 3.55 67.712 5.02Z" fill="black"/>
<path d="M57.0241 25H52.4041V2.38H57.0241V15.4L61.8841 10H67.6741L62.0341 15.94L67.4941 25H62.1541L58.7941 19.39L57.0241 21.25V25Z" fill="black"/>
<path d="M37.66 20.26H42.04C42.1 21.31 42.88 21.94 44.29 21.94C45.73 21.94 46.39 21.43 46.39 20.65C46.39 20.2 46.15 19.72 45.04 19.48L42.28 18.88C39.52 18.28 38.17 17.08 38.17 14.44C38.17 11.32 40.84 9.51999 44.44 9.51999C47.92 9.51999 50.35 11.56 50.35 14.59H45.97C45.97 13.57 45.34 12.88 44.23 12.88C43.18 12.88 42.52 13.42 42.52 14.23C42.52 14.92 43.09 15.31 44.14 15.55L46.93 16.15C49.39 16.69 50.74 17.83 50.74 20.23C50.74 23.44 48.01 25.39 44.11 25.39C40.15 25.39 37.66 23.29 37.66 20.26Z" fill="black"/>
<path d="M14.5 11.5V11.8496C14.5 13.0068 14.5016 13.7398 14.5469 14.2939C14.59 14.8218 14.661 14.9872 14.6904 15.0449L14.7578 15.165C14.9259 15.4391 15.167 15.6628 15.4551 15.8096L15.5225 15.8379C15.6179 15.8723 15.8098 15.9208 16.2061 15.9531C16.7602 15.9984 17.4934 16 18.6504 16H21.25V11.5H14.5ZM28.001 20.1504C28.001 18.9932 27.9994 18.2602 27.9541 17.7061C27.911 17.1787 27.84 17.013 27.8106 16.9551L27.7432 16.835C27.5751 16.5609 27.3339 16.3373 27.0459 16.1904L26.9785 16.1621C26.8832 16.1277 26.6912 16.0793 26.2949 16.0469C25.7409 16.0016 25.0076 16 23.8506 16H21.251V20.5H28.001V20.1504ZM23.8506 11.5C24.9333 11.5 25.8814 11.4978 26.6611 11.5615C27.3664 11.6192 28.0851 11.7397 28.7881 12.041L29.0889 12.1816C30.1909 12.7434 31.1002 13.6185 31.7031 14.6943L31.8193 14.9121C32.2258 15.7099 32.3736 16.5337 32.4395 17.3398C32.5032 18.1197 32.501 19.0676 32.501 20.1504V25H21.25V20.5H18.6504C17.5677 20.5 16.6196 20.5021 15.8398 20.4385C15.1345 20.3808 14.4159 20.2603 13.7129 19.959L13.4121 19.8184C12.31 19.2567 11.4008 18.3815 10.7979 17.3057L10.6816 17.0879C10.2751 16.29 10.1274 15.4663 10.0615 14.6602C9.99783 13.8803 10 12.9325 10 11.8496V7H21.251V11.5H23.8506Z" fill="black"/>
</svg>
